<svg width="122" height="122" viewBox="0 0 122 122" fill="none" xmlns="http://www.w3.org/2000/svg">
<circle cx="61" cy="61" r="61" fill="#F5595F" fill-opacity="0.2"/>
<circle cx="61" cy="62.6053" r="46.5526" fill="#F5595F" fill-opacity="0.5"/>
<circle cx="61.4014" cy="60.5987" r="28.4934" fill="#ED4E55"/>
<path d="M44.9698 55.7959L61.5666 46.6399C61.722 46.5542 61.9112 46.5573 62.0638 46.648L78.2276 56.2651C78.5649 56.4658 78.5501 56.959 78.2014 57.1391L62.0851 65.461C61.9398 65.5361 61.767 65.5353 61.6224 65.459L44.978 56.676C44.6262 56.4903 44.6215 55.9881 44.9698 55.7959Z" stroke="white" stroke-width="3"/>
<path d="M48.5 58.3754L48.5855 66.6708C48.5931 67.4019 48.999 68.0706 49.6441 68.4148L61.5262 74.7534C62.1323 75.0767 62.862 75.0664 63.4586 74.726L74.4794 68.4389C75.1094 68.0795 75.4955 67.407 75.4882 66.6817L75.4051 58.3836" stroke="white" stroke-width="3"/>
<path d="M67.3679 56.3972L79.3837 60.5659C80.1885 60.8451 80.7282 61.6035 80.7282 62.4554V73.8473" stroke="white" stroke-width="3" stroke-linecap="round"/>
<circle cx="81" cy="74.2729" r="3" fill="white"/>
</svg>
