<svg width="122" height="122" viewBox="0 0 122 122" fill="none" xmlns="http://www.w3.org/2000/svg">
<circle cx="61" cy="61" r="61" fill="#AF6BF2" fill-opacity="0.2"/>
<circle cx="61" cy="62.6053" r="46.5526" fill="#AF6BF2" fill-opacity="0.5"/>
<circle cx="61.4014" cy="60.5987" r="28.4934" fill="#AF6BF2"/>
<path d="M54.8333 48.3333H48.5C47.3954 48.3333 46.5 49.2288 46.5 50.3333V65.5C46.5 66.6046 47.3954 67.5 48.5 67.5H74.5C75.6046 67.5 76.5 66.6046 76.5 65.5V50.3333C76.5 49.2288 75.6046 48.3333 74.5 48.3333H68.5833" stroke="white" stroke-width="3"/>
<rect x="54.1666" y="46" width="13.8333" height="4.66667" rx="1" stroke="white" stroke-width="2"/>
<line x1="45.5" y1="67.6667" x2="77.5" y2="67.6667" stroke="white" stroke-width="3" stroke-linecap="round"/>
<path d="M57.3334 75L61.3656 69.1667L65.6667 75" stroke="white" stroke-width="3" stroke-linecap="round"/>
<path d="M54.3724 59.76C54.3724 59.3013 54.4578 58.8987 54.6284 58.552C54.8044 58.2053 55.0418 57.9387 55.3404 57.752C55.6391 57.5653 55.9724 57.472 56.3404 57.472C56.6551 57.472 56.9298 57.536 57.1644 57.664C57.4044 57.792 57.5884 57.96 57.7164 58.168V57.536H59.0844V62H57.7164V61.368C57.5831 61.576 57.3964 61.744 57.1564 61.872C56.9218 62 56.6471 62.064 56.3324 62.064C55.9698 62.064 55.6391 61.9707 55.3404 61.784C55.0418 61.592 54.8044 61.3227 54.6284 60.976C54.4578 60.624 54.3724 60.2187 54.3724 59.76ZM57.7164 59.768C57.7164 59.4267 57.6204 59.1573 57.4284 58.96C57.2418 58.7627 57.0124 58.664 56.7404 58.664C56.4684 58.664 56.2364 58.7627 56.0444 58.96C55.8578 59.152 55.7644 59.4187 55.7644 59.76C55.7644 60.1013 55.8578 60.3733 56.0444 60.576C56.2364 60.7733 56.4684 60.872 56.7404 60.872C57.0124 60.872 57.2418 60.7733 57.4284 60.576C57.6204 60.3787 57.7164 60.1093 57.7164 59.768ZM61.4421 58.168C61.5701 57.96 61.7541 57.792 61.9941 57.664C62.2341 57.536 62.5088 57.472 62.8181 57.472C63.1861 57.472 63.5195 57.5653 63.8181 57.752C64.1168 57.9387 64.3515 58.2053 64.5221 58.552C64.6981 58.8987 64.7861 59.3013 64.7861 59.76C64.7861 60.2187 64.6981 60.624 64.5221 60.976C64.3515 61.3227 64.1168 61.592 63.8181 61.784C63.5195 61.9707 63.1861 62.064 62.8181 62.064C62.5035 62.064 62.2288 62.0027 61.9941 61.88C61.7595 61.752 61.5755 61.584 61.4421 61.376V62H60.0741V56.08H61.4421V58.168ZM63.3941 59.76C63.3941 59.4187 63.2981 59.152 63.1061 58.96C62.9195 58.7627 62.6875 58.664 62.4101 58.664C62.1381 58.664 61.9061 58.7627 61.7141 58.96C61.5275 59.1573 61.4341 59.4267 61.4341 59.768C61.4341 60.1093 61.5275 60.3787 61.7141 60.576C61.9061 60.7733 62.1381 60.872 62.4101 60.872C62.6821 60.872 62.9141 60.7733 63.1061 60.576C63.2981 60.3733 63.3941 60.1013 63.3941 59.76ZM65.2318 59.768C65.2318 59.304 65.3251 58.8987 65.5118 58.552C65.7038 58.2053 65.9678 57.9387 66.3038 57.752C66.6451 57.5653 67.0345 57.472 67.4718 57.472C68.0318 57.472 68.4985 57.6187 68.8718 57.912C69.2505 58.2053 69.4985 58.6187 69.6158 59.152H68.1598C68.0371 58.8107 67.7998 58.64 67.4478 58.64C67.1971 58.64 66.9971 58.7387 66.8478 58.936C66.6985 59.128 66.6238 59.4053 66.6238 59.768C66.6238 60.1307 66.6985 60.4107 66.8478 60.608C66.9971 60.8 67.1971 60.896 67.4478 60.896C67.7998 60.896 68.0371 60.7253 68.1598 60.384H69.6158C69.4985 60.9067 69.2505 61.3173 68.8718 61.616C68.4931 61.9147 68.0265 62.064 67.4718 62.064C67.0345 62.064 66.6451 61.9707 66.3038 61.784C65.9678 61.5973 65.7038 61.3307 65.5118 60.984C65.3251 60.6373 65.2318 60.232 65.2318 59.768Z" fill="white"/>
</svg>
